<svg xmlns="http://www.w3.org/2000/svg" version="1.1" xmlns:xlink="http://www.w3.org/1999/xlink" width="1000" height="1000"><g clip-path="url(#SvgjsClipPath1085)"><rect width="1000" height="1000" fill="#c7c7c7"></rect><g transform="matrix(1.1999922000506995,0,0,1.1999922000506995,100,100)"><svg xmlns="http://www.w3.org/2000/svg" version="1.1" xmlns:xlink="http://www.w3.org/1999/xlink" width="666.671" height="666.671"><svg xmlns="http://www.w3.org/2000/svg" width="666.671" height="666.671" viewBox="0 0 500 500"><path d="M81.21 295.83c0-14.12 1.91-25.37 5.71-33.73 3.81-8.36 10.64-15.33 20.49-20.91 6.51-3.9 11.48-7.34 14.91-10.31 3.44-2.97 5.76-6.13 6.97-9.48 1.21-3.35 1.81-7.43 1.81-12.27 0-7.62-2.46-14.03-7.39-19.23-4.92-5.2-12.59-7.81-23-7.81-11.52 0-20.21 2.88-26.06 8.64-5.85 5.76-9.43 14.31-10.73 25.65l-34.57-1.95c1.11-12.08 4.65-22.86 10.59-32.34 5.95-9.48 14.03-16.91 24.25-22.3 10.22-5.39 22.4-8.08 36.52-8.08 13.38 0 24.95 2.42 34.71 7.25 9.76 4.84 17.19 11.53 22.3 20.07 5.11 8.55 7.67 18.4 7.67 29.55 0 7.81-1.16 14.59-3.48 20.35-2.32 5.76-5.95 10.97-10.87 15.61-4.92 4.65-11.19 9.39-18.82 14.22-5.39 3.16-9.52 6.41-12.4 9.76a28.137 28.137 0 0 0-5.99 11.43c-1.12 4.28-1.67 9.57-1.67 15.89H81.22Zm-4.46 58.26v-39.31h40.7v39.31h-40.7Zm157.78-58.26c0-14.12 1.91-25.37 5.71-33.73 3.81-8.36 10.64-15.33 20.49-20.91 6.51-3.9 11.48-7.34 14.91-10.31 3.44-2.97 5.76-6.13 6.97-9.48 1.21-3.35 1.81-7.43 1.81-12.27 0-7.62-2.46-14.03-7.39-19.23-4.92-5.2-12.59-7.81-23-7.81-11.52 0-20.21 2.88-26.06 8.64-5.85 5.76-9.43 14.31-10.73 25.65l-34.57-1.95c1.11-12.08 4.65-22.86 10.59-32.34 5.95-9.48 14.03-16.91 24.25-22.3 10.22-5.39 22.4-8.08 36.52-8.08 13.38 0 24.95 2.42 34.71 7.25 9.76 4.84 17.19 11.53 22.3 20.07 5.11 8.55 7.67 18.4 7.67 29.55 0 7.81-1.16 14.59-3.48 20.35-2.32 5.76-5.95 10.97-10.87 15.61-4.92 4.65-11.19 9.39-18.82 14.22-5.39 3.16-9.52 6.41-12.4 9.76a28.137 28.137 0 0 0-5.99 11.43c-1.11 4.28-1.67 9.57-1.67 15.89h-30.94Zm-4.46 58.26v-39.31h40.7v39.31h-40.7Zm156.38-58.26c0-14.12 1.9-25.37 5.71-33.73 3.81-8.36 10.64-15.33 20.49-20.91 6.5-3.9 11.47-7.34 14.91-10.31 3.44-2.97 5.76-6.13 6.97-9.48 1.21-3.35 1.81-7.43 1.81-12.27 0-7.62-2.47-14.03-7.39-19.23-4.93-5.2-12.59-7.81-23-7.81-11.52 0-20.21 2.88-26.06 8.64-5.85 5.76-9.43 14.31-10.73 25.65l-34.57-1.95c1.11-12.08 4.64-22.86 10.59-32.34 5.95-9.48 14.03-16.91 24.25-22.3 10.22-5.39 22.39-8.08 36.52-8.08 13.38 0 24.95 2.42 34.71 7.25 9.76 4.84 17.19 11.53 22.3 20.07 5.11 8.55 7.67 18.4 7.67 29.55 0 7.81-1.16 14.59-3.48 20.35-2.33 5.76-5.95 10.97-10.87 15.61-4.93 4.65-11.2 9.39-18.82 14.22-5.39 3.16-9.53 6.41-12.41 9.76a28.137 28.137 0 0 0-5.99 11.43c-1.11 4.28-1.67 9.57-1.67 15.89h-30.94ZM382 354.09v-39.31h40.7v39.31H382Z"></path></svg></svg></g></g><defs><clipPath id="SvgjsClipPath1085"><rect width="1000" height="1000" x="0" y="0" rx="350" ry="350"></rect></clipPath></defs></svg>